# xmcd CD database file generated by Grip 2.94
# 
# Track frame offsets:
#       150
#       15250
#       30328
#       43631
#       60323
#       79656
#       96804
#       115351
#       129564
#       144706
# 
# Disc length: 2136 seconds
# 
# Revision: 3
# Processed by: cddbd v1.4b41PL1 Copyright (c) Steve Scherf et al.
# Submitted via: Grip 2.94
# 
DISCID=7508560a
DTITLE=Laurie Hayes - Once in a Lifetime
DYEAR=1900
DGENRE=
TTITLE0=Two Timin' Two Stepper
TTITLE1=Love is a Hero
TTITLE2=Terminal Loneliness
TTITLE3=Love Feels
TTITLE4=Once is a Lifetime
TTITLE5=Best of the Blues
TTITLE6=Wait Til My Heart Finds Out
TTITLE7=I've Had It
TTITLE8=Who's the Fool
TTITLE9=All Over Again
EXTD=
EXTT0=
EXTT1=
EXTT2=
EXTT3=
EXTT4=
EXTT5=
EXTT6=
EXTT7=
EXTT8=
EXTT9=
PLAYORDER=
